<svg id="Layer_1" data-name="Layer 1" xmlns="http://www.w3.org/2000/svg" width="53.7" height="27.06" viewBox="0 0 53.7 27.06"><defs><style>.cls-1{fill:#231f20;}</style></defs><title>arrow</title><path class="cls-1" d="M9.8,17.68H58.66c3.22,0,3.23-5,0-5H9.8c-3.22,0-3.23,5,0,5Z" transform="translate(-7.38 -1.86)"/><path class="cls-1" d="M11.16,17.3A204.39,204.39,0,0,1,31.52,6.48a2.54,2.54,0,0,0,.9-3.43A2.56,2.56,0,0,0,29,2.16,207.49,207.49,0,0,0,8.64,13c-2.75,1.66-.24,6,2.52,4.32Z" transform="translate(-7.38 -1.86)"/><path class="cls-1" d="M9.11,17.8A208.63,208.63,0,0,0,29.47,28.62a2.57,2.57,0,0,0,3.42-.9A2.52,2.52,0,0,0,32,24.3,207.62,207.62,0,0,1,11.63,13.48c-2.76-1.67-5.27,2.65-2.52,4.32Z" transform="translate(-7.38 -1.86)"/></svg>