<svg id="Layer_13" data-name="Layer 13" xmlns="http://www.w3.org/2000/svg" xmlns:xlink="http://www.w3.org/1999/xlink" width="55.8" height="48.75" viewBox="0 0 55.8 48.75"><defs><style>.cls-1{stroke:#fff;stroke-miterlimit:10;}.cls-2{clip-path:url(#clip-path);}.cls-3{fill:#fff;}</style><clipPath id="clip-path" transform="translate(-1007.13 -2.72)"><path d="M1030.59,48.64l-4.42,0a9.9,9.9,0,0,1-6.88-2.85,9.69,9.69,0,0,1-2.86-6.89V29.69a9.74,9.74,0,0,1,9.74-9.74h17.73a9.74,9.74,0,0,1,9.74,9.74v9.19a9.74,9.74,0,0,1-9.74,9.74h-4.42"/></clipPath></defs><title>home</title><path class="cls-1" d="M1008.36,27l21.8-21.8a6.69,6.69,0,0,1,9.46.06l22.07,22.07a2.48,2.48,0,0,1-1.75,4.26l-49.78-.3A2.53,2.53,0,0,1,1008.36,27Z" transform="translate(-1007.13 -2.72)"/><path d="M1030.59,48.64l-4.42,0a9.9,9.9,0,0,1-6.88-2.85,9.69,9.69,0,0,1-2.86-6.89V29.69a9.74,9.74,0,0,1,9.74-9.74h17.73a9.74,9.74,0,0,1,9.74,9.74v9.19a9.74,9.74,0,0,1-9.74,9.74h-4.42" transform="translate(-1007.13 -2.72)"/><g class="cls-2"><rect x="22.44" y="34.97" width="10.93" height="13.77" rx="1.24"/></g><path class="cls-3" d="M1029.48,50.28a2.85,2.85,0,0,0,2,.81h7.19a2.78,2.78,0,0,0,2-.81" transform="translate(-1007.13 -2.72)"/><path class="cls-3" d="M1041.41,49.19c0-3.48,0-7.32,0-10.79a2.83,2.83,0,0,0-2.77-2.88h-7.19a2.83,2.83,0,0,0-2.77,2.88V49.19" transform="translate(-1007.13 -2.72)"/></svg>