<svg id="Layer_5" data-name="Layer 5" xmlns="http://www.w3.org/2000/svg" width="176.59" height="196.75" viewBox="0 0 176.59 196.75"><defs><style>.cls-1{fill:#231f20;}</style></defs><title>z</title><path class="cls-1" d="M119.55,435.41a37.2,37.2,0,0,1-.66-21.71l-4.18,1.1A177.78,177.78,0,0,0,145,434a123,123,0,0,0,16.26,7c5.48,1.79,11.92,2.38,16.67-1.47,3.93-3.18,6.16-9.51,2.84-13.89-.9-1.18-2.77-1.85-3.93-.51-13.22,15.24-24.47,32-35.27,49-10.7,16.85-21,34-32.73,50.15a259.92,259.92,0,0,1-21.26,26l4.18,2.43a111.4,111.4,0,0,1,6.28-22.07,106.61,106.61,0,0,1,4.84-10.33q1.36-2.55,2.87-5c.26-.43.64-1.38,1.13-1.62.33-.17.34-.09.72.21a25.26,25.26,0,0,1,3.47,4q1.83,2.21,3.67,4.39,3.64,4.27,7.4,8.43,7.68,8.48,15.9,16.45A361.24,361.24,0,0,0,172.81,577c12.18,9.16,24.92,18.13,39,24.08s30.15,8.56,45,3.88a51.19,51.19,0,0,0,5.48-2.11,2.51,2.51,0,0,0,.9-3.42,2.56,2.56,0,0,0-3.42-.9c-14,6.21-30.15,4.2-44-1.22-14.34-5.61-27.25-14.81-39.52-24a353.85,353.85,0,0,1-34.93-29.88q-8.21-8-15.88-16.47-3.83-4.25-7.53-8.61c-1.28-1.51-2.54-3-3.8-4.57a21.09,21.09,0,0,0-3.82-4.07,5.28,5.28,0,0,0-5.56-.49c-1.61.86-2.55,2.49-3.46,4a107.91,107.91,0,0,0-5.43,10.25,113.07,113.07,0,0,0-7.69,22.32c-.44,1.88-.82,3.78-1.15,5.68a2.6,2.6,0,0,0,1.15,2.83,2.54,2.54,0,0,0,3-.39c13.78-14.68,25.42-31.2,36.34-48.07s21.09-34,32.44-50.41a299.72,299.72,0,0,1,20.48-26.73l-3.93-.51a4,4,0,0,1,.69,4,7.73,7.73,0,0,1-2.62,3.7c-3.84,2.94-9.57,1.2-13.66-.32a155.54,155.54,0,0,1-28.15-14.23,170.37,170.37,0,0,1-14.49-10.15c-1.42-1.11-3.63-.87-4.17,1.11a42.07,42.07,0,0,0,.66,24.37c1,3,5.85,1.74,4.82-1.33Z" transform="translate(-86.9 -410.6)"/></svg>