<svg xmlns="http://www.w3.org/2000/svg" width="132.93" height="744.48" viewBox="0 0 132.93 744.48"><defs><style>.cls-1{fill:#dca157;}.cls-2{fill:#868693;}.cls-3,.cls-4{fill:#f7f7f7;}.cls-3{stroke:#dda257;stroke-miterlimit:10;}.cls-5{fill:#bab4b1;}.cls-6{fill:#d8d4d0;}.cls-7{fill:#af7a46;}</style></defs><title>fox_walk_sprite</title><g id="_1" data-name="1"><path class="cls-1" d="M80.2,103a12,12,0,0,0-1.28.37l-1,.3c-.38.1-.86.22-1.27.3a11.56,11.56,0,0,1-1.2.16l-1.32.07a4.61,4.61,0,0,0-1.12.2c3,12.12,8.7,23.11,13.21,34.7,2.95-.48,5.68-.72,8.24-2.39C89.05,125.55,83,115.26,80.2,103Z" transform="translate(0.5)"/><path class="cls-1" d="M23,105.09c-.42.09-.91.25-1.28.37s-.58.2-1,.3-.86.23-1.27.31-.79.12-1.2.16l-1.32.07a4.18,4.18,0,0,0-1.12.2c3,12.12,8.69,23.1,13.21,34.69,2.95-.47,5.68-.72,8.24-2.38C31.81,127.63,25.74,117.34,23,105.09Z" transform="translate(0.5)"/><path id="shadow" class="cls-2" d="M43.8,140.73" transform="translate(0.5)"/><path class="cls-3" d="M8.77,87.29C-4.47,83.07-3.41,50.52,16.69,56.5c11.74,3.76,10.62,29.09-3.21,20.83-12.83-31,20.87,2,.7-6.58" transform="translate(0.5)"/><path class="cls-1" d="M6,86.71a27.2,27.2,0,0,1,10.91,9.51,2.85,2.85,0,0,0,4.1.44,8.67,8.67,0,0,0,1.65-1.33c1.23-1.52,1.6-2.78.51-4.51-3.53-5.58-7.59-8.5-13-12.13a16.85,16.85,0,0,1-2.12.4c.27.85.46,1.71.67,2.58-.73.19-1.48.33-2.22.5a20.6,20.6,0,0,0,.62,2.43c-.83-.08-1.65-.26-2.47-.42C5.08,85,5.52,85.88,6,86.71Z" transform="translate(0.5)"/><path class="cls-1" d="M91.78,26.22A37.56,37.56,0,0,0,95,34.72c2.39,4.87,5.35,10.44,7.21,16.37,2.55,8.14,7.13,18.71,13.3,23.91,5.54,4.66,19,9.17,14.78,12-.47.31-6.28.57-9.51,1,1.54-.21-3.53-.33-5-.16-3.87.43-7.4,1-10.93,1.25-32.14,2.48-50.56-.88-60.33-9-4.82-4-6.93-8.88-7.87-15-.13-.83-.41-1.55-.48-2.42a46.73,46.73,0,0,1,.29-9.07,126.19,126.19,0,0,1,7-28.54c2.83-7.7,6.22-15.9,9.84-24.52,12,15.18,12.91,23.22,15.66,23.3C72.9,24,73.4,10.07,79.81,0,84.56,8,87.78,15.31,91.78,26.22Z" transform="translate(0.5)"/><path class="cls-3" d="M45.5,129.36" transform="translate(0.5)"/><path class="cls-1" d="M39.6,128.22" transform="translate(0.5)"/><path class="cls-4" d="M116.34,77.38a23.46,23.46,0,0,0,4.82,2.33c1.44.49,5.89,1.61,6,2.07.88,2.67,1,4.58.9,5.09-.23.8-7.83,1.1-15.7,2-1.19.13-12,1.05-15.82,1.2-.72,0-1.62.09-2.83.15a16.68,16.68,0,0,0-2.17.13,37.14,37.14,0,0,1-10,1.1,115.48,115.48,0,0,1-12.88-2C62.28,88,55.59,88.62,46.21,82a25.49,25.49,0,0,1-6.44-6.25,24,24,0,0,1-3.43-7.81,31,31,0,0,1-.87-5.64,32.6,32.6,0,0,1-.1-4.53A80.3,80.3,0,0,1,37,46c.87-4,2-7.65,2.09-8,.17-.78,5.21-16,5.39-16,1.2-.1,11.05,1.41,15.21,2,4.51.63,15.21,7.45,18.78,11.54C80.27,37.53,92.26,50,93.31,52.93c.69,1.91,10.09,14.3,11.62,15.9A51,51,0,0,0,116.34,77.38Z" transform="translate(0.5)"/><path d="M124.83,84.46c-.83-2.45,1.35-4.5,3.51-4.59s4.9,1.95,3.86,4.43c-1,2.3-1.35,4.51-3.51,4.59S125.63,86.82,124.83,84.46Z" transform="translate(0.5)"/><ellipse class="cls-5" cx="78.22" cy="56.23" rx="11.74" ry="11.9" transform="translate(-1.68 3.16) rotate(-2.28)"/><circle class="cls-6" cx="78.83" cy="56.73" r="11.6"/><ellipse cx="79.03" cy="56.52" rx="0.98" ry="0.81"/><path id="body" class="cls-4" d="M43.38,115.22c-44.3,23.88-32.64-26.87-16-28.38A70.5,70.5,0,0,1,37,86.33c26.72,1.89,44.37-9.62,47.77-.43,3.38,30.53-10.83,26.48-25,26C55.34,111.73,45.77,114.1,43.38,115.22Z" transform="translate(0.5)"/><path class="cls-7" d="M21.1,104.22c-.64.7-1.34,1.36-2,2a4.15,4.15,0,0,1-.37-2.57,8.53,8.53,0,0,0-2.15,1.82,5.82,5.82,0,0,1,.56-2.94c-1,.81-.88,1.81-1.66,2.87a12.56,12.56,0,0,0,0-1.94c0-.68-.38-1.47-.24-2.07-6.31,36.58-24.07,44.05-6.09,44C13.83,128.44,21.18,123.39,21.1,104.22Z" transform="translate(0.5)"/><path class="cls-7" d="M85.34,101c-.84,1.1-1.71,2.16-2.59,3.23-.14-1.26-.11-2.52-.28-3.78-.8,1.09-1.51,2.23-2.21,3.38A6.08,6.08,0,0,0,79,101c-.55.93-1,1.93-1.43,2.91a9.14,9.14,0,0,0-1.33-1.63c-.12-.1-.69-.37-.67-.67,2.13,21.1-7.86,18.89-14.49,39.42a20.37,20.37,0,0,0,8.4,3.4c3.95-18.08,14.12-21.89,15.66-42.26A9.92,9.92,0,0,1,85.34,101Z" transform="translate(0.5)"/><path class="cls-4" d="M13.85,124.7" transform="translate(0.5)"/><line class="cls-3" x1="11.18" y1="80.55" x2="13.08" y2="75.39"/></g><g id="_2" data-name="2"><path class="cls-1" d="M83,249l-1.36.07-.93,0-1.33,0c-.42,0-.79,0-1.2,0l-1.34,0c-.41,0-.73,0-1.13,0-.21,14.4-.06,28.8-.28,43.2,2.21-.37,4.42-.34,6.64-.58C82.74,277.46,82.56,263.23,83,249Z" transform="translate(0.5)"/><path class="cls-1" d="M26.86,249.58l-1.36.07-.93,0-1.33,0c-.42,0-.79,0-1.21,0s-.92-.05-1.33-.05-.73,0-1.13,0c-.21,14.4-.06,28.8-.28,43.2,2.21-.38,4.42-.34,6.64-.58C26.61,278,26.43,263.78,26.86,249.58Z" transform="translate(0.5)"/><path id="shadow-2" data-name="shadow" class="cls-2" d="M43.3,290.94" transform="translate(0.5)"/><path class="cls-3" d="M7.1,237c-12.69-5.66-8-37.89,11.28-29.73,11.25,5,7,32.7-3.93,21-22.9-24.49,11.68-20.39,1-5" transform="translate(0.5)"/><path class="cls-1" d="M4.49,235.77a27.11,27.11,0,0,1,9.31,11.09c.73,1.46,2.4,1.81,4,1.07a8.38,8.38,0,0,0,1.83-1.06c1.46-1.3,3.29-4.16,2.48-6-2.62-6.06-7.44-7.91-12.2-12.33-.72.06-1.43.08-2.16.07.13.88.19,1.76.27,2.65-.76.07-1.52.1-2.28.15A20.77,20.77,0,0,0,6,233.86a22,22,0,0,1-2.37-.8C3.87,234,4.18,234.88,4.49,235.77Z" transform="translate(0.5)"/><path class="cls-1" d="M91.8,176.68a37.59,37.59,0,0,0,3,8.59c2.26,4.93,5.07,10.58,6.77,16.55,2.33,8.22,6.62,18.9,12.65,24.27,5.41,4.81,18.73,9.68,14.44,12.42-.47.3-6.29.41-9.53.77,1.55-.17-3.52-.42-5-.3-3.88.32-7.42.78-11,1-32.19,1.62-50.51-2.24-60.06-10.63-4.7-4.14-6.68-9.07-7.46-15.22-.1-.84-.36-1.57-.41-2.44a46.8,46.8,0,0,1,.54-9.06,125.71,125.71,0,0,1,7.73-28.34c3-7.61,6.64-15.72,10.5-24.24,11.53,15.49,12.27,23.56,15,23.72,4,.23,4.89-13.68,11.57-23.57C85.07,158.31,88.09,165.67,91.8,176.68Z" transform="translate(0.5)"/><path class="cls-3" d="M45,279.57" transform="translate(0.5)"/><path class="cls-1" d="M39.1,278.43" transform="translate(0.5)"/><path class="cls-4" d="M115,228.49a23.28,23.28,0,0,0,4.75,2.46c1.43.53,5.85,1.77,6,2.23.81,2.69.94,4.61.77,5.12-.25.79-7.85.89-15.75,1.58-1.19.1-12,.73-15.84.77-.73,0-1.63,0-2.84.08a16.16,16.16,0,0,0-2.17.06,36.59,36.59,0,0,1-10,.84A112.13,112.13,0,0,1,67,239.29c-6.41-1.67-13.11-1.21-22.31-8.09a25.16,25.16,0,0,1-6.26-6.43,23.54,23.54,0,0,1-3.22-7.9,30.88,30.88,0,0,1-.72-5.65,32.61,32.61,0,0,1,0-4.53,81.43,81.43,0,0,1,1.94-11.76c1-4,2.22-7.6,2.31-8,.19-.78,5.64-15.84,5.82-15.85,1.21-.07,11,1.71,15.16,2.41,4.48.76,15,7.86,18.45,12.05,1.75,2.12,13.4,14.93,14.38,17.87.63,1.93,9.69,14.57,11.18,16.2A50.67,50.67,0,0,0,115,228.49Z" transform="translate(0.5)"/><path d="M123.25,235.8c-.76-2.47,1.48-4.46,3.63-4.49s4.86,2.08,3.75,4.53c-1,2.28-1.48,4.47-3.63,4.5S124,238.18,123.25,235.8Z" transform="translate(0.5)"/><ellipse class="cls-5" cx="77.8" cy="206.26" rx="11.74" ry="11.9"/><circle class="cls-6" cx="78.02" cy="206.82" r="11.6"/><ellipse cx="78.17" cy="206.78" rx="0.98" ry="0.81" transform="translate(-2.12 1.01) rotate(-0.73)"/><path id="body-2" data-name="body" class="cls-4" d="M42.88,265.43c-44.3,23.89-32.64-26.87-16-28.37a70.5,70.5,0,0,1,9.59-.52c26.72,1.89,44.37-9.62,47.77-.42,3.38,30.53-11.78,26.81-25.89,26.33C53.89,262.29,45.27,264.32,42.88,265.43Z" transform="translate(0.5)"/><path class="cls-7" d="M20.6,254.43c-.65.71-1.34,1.36-2,2a4.12,4.12,0,0,1-.37-2.56,8.53,8.53,0,0,0-2.15,1.82,5.86,5.86,0,0,1,.56-2.95c-1,.81-.88,1.82-1.66,2.87a12.56,12.56,0,0,0,0-1.94c0-.67-.38-1.47-.24-2.06-6.31,36.58-24.07,44-6.09,44C13.33,278.65,20.68,273.61,20.6,254.43Z" transform="translate(0.5)"/><path class="cls-7" d="M84.84,251.2c-.84,1.1-1.72,2.17-2.59,3.23-.15-1.25-.11-2.52-.28-3.77-.8,1.08-1.51,2.22-2.21,3.37a6.12,6.12,0,0,0-1.23-2.85c-.55.94-1,1.94-1.43,2.92a8.84,8.84,0,0,0-1.34-1.64c-.11-.1-.68-.37-.66-.66,2.13,21.09-7.86,18.88-14.49,39.41a20.38,20.38,0,0,0,8.4,3.41c3.94-18.08,14.12-21.89,15.66-42.27A10.61,10.61,0,0,1,84.84,251.2Z" transform="translate(0.5)"/><path class="cls-4" d="M13.35,274.92" transform="translate(0.5)"/><line class="cls-3" x1="11.34" y1="230.66" x2="13.57" y2="226.44"/></g><g id="_3" data-name="3"><path class="cls-1" d="M84,406.19c-.47,0-1.07.05-1.51.05h-1l-1.49,0H77.1c-.47,0-.85,0-1.3.08-.55,12.5-8.33,25-13.81,36,2.51-.07,5,0,7.5.05C75.16,430.65,82.38,419.24,84,406.19Z" transform="translate(0.5)"/><path class="cls-1" d="M30.1,400.5a8.74,8.74,0,0,0-1.33-.09c-.38,0-.45,0-.82,0H25.43c-.44,0-1,0-1.47,0a5.86,5.86,0,0,1-1.19-.06C24,409.18,6.69,431.89,1.23,441l6.65,2.53C15.58,430.61,29.94,415.09,30.1,400.5Z" transform="translate(0.5)"/><path id="shadow-3" data-name="shadow" class="cls-2" d="M44.48,441.74" transform="translate(0.5)"/><path class="cls-3" d="M8.91,388.63c-12.27-6.53-5.38-38.36,13.32-28.88,10.87,5.81,19.71,20.95,8,21.95-33.41,2.88-15.55-24.74-1.54-7.93" transform="translate(0.5)"/><path class="cls-1" d="M6.26,387.55a27.07,27.07,0,0,1,9,11.32c.7,1.47,2.35,1.86,3.95,1.16a8.39,8.39,0,0,0,1.86-1c1.49-1.27,4.91-4,4.15-5.9-2.48-6.12-8.77-8.17-13.41-12.7-.73,0-1.44,0-2.16,0,.1.88.14,1.77.19,2.65-.76.06-1.51.07-2.27.1a19.11,19.11,0,0,0,.18,2.5,22.19,22.19,0,0,1-2.36-.86C5.68,385.73,6,386.65,6.26,387.55Z" transform="translate(0.5)"/><path class="cls-1" d="M93.51,327.75a37.59,37.59,0,0,0,2.73,8.67c2.12,5,4.77,10.72,6.29,16.74,2.09,8.28,6.08,19.08,12,24.62,5.27,5,18.45,10.22,14.09,12.83-.49.29-6.31.23-9.56.5,1.56-.13-3.5-.53-5-.45-3.89.22-7.45.57-11,.64C70.79,392,52.58,387.61,43.28,379c-4.58-4.27-6.42-9.25-7-15.43-.08-.83-.32-1.57-.34-2.44a46,46,0,0,1,.8-9,125.84,125.84,0,0,1,8.53-28.11c3.26-7.53,7.09-15.53,11.19-23.93C67.53,315.82,68,323.9,70.78,324.14c4,.35,5.28-13.53,12.24-23.23C87.31,309.2,90.13,316.64,93.51,327.75Z" transform="translate(0.5)"/><path class="cls-3" d="M46.17,430.36" transform="translate(0.5)"/><path class="cls-1" d="M40.27,429.23" transform="translate(0.5)"/><path class="cls-4" d="M115.19,380.21a23.14,23.14,0,0,0,4.67,2.59c1.41.56,5.8,1.93,5.93,2.4.73,2.71.8,4.63.62,5.13-.28.79-7.88.67-15.79,1.13-1.19.07-12,.39-15.86.32-.72,0-1.62,0-2.83,0a15.84,15.84,0,0,0-2.18,0,36.55,36.55,0,0,1-10,.55A114.06,114.06,0,0,1,67,389.63c-6.35-1.86-13.07-1.59-22.06-8.73a25.2,25.2,0,0,1-6.08-6.6,23.86,23.86,0,0,1-3-8,30.19,30.19,0,0,1-.56-5.67,34.24,34.24,0,0,1,.15-4.53,79.87,79.87,0,0,1,2.28-11.7c1.09-4,2.43-7.53,2.53-7.91.22-.77,6.1-15.67,6.27-15.67,1.21,0,11,2,15.08,2.84,4.46.88,14.77,8.29,18.1,12.57,1.7,2.17,13,15.31,13.87,18.27.58,1.95,9.27,14.84,10.71,16.52A51.33,51.33,0,0,0,115.19,380.21Z" transform="translate(0.5)"/><path d="M123.27,387.75c-.7-2.49,1.6-4.42,3.75-4.39s4.79,2.22,3.62,4.64c-1.09,2.24-1.6,4.42-3.76,4.39S123.93,390.15,123.27,387.75Z" transform="translate(0.5)"/><ellipse class="cls-5" cx="78.97" cy="357.05" rx="11.74" ry="11.9"/><circle class="cls-6" cx="78.88" cy="357.47" r="11.6"/><ellipse cx="79.03" cy="357.45" rx="0.81" ry="0.98" transform="translate(-279.13 430.8) rotate(-89.09)"/><path id="body-3" data-name="body" class="cls-4" d="M44.05,416.23c-44.29,23.88-32.63-26.87-16-28.38a69,69,0,0,1,9.59-.51c26.73,1.89,44.38-9.62,47.77-.43,3.38,30.53-10.82,26.48-24.94,26C56,412.74,46.45,415.11,44.05,416.23Z" transform="translate(0.5)"/><path class="cls-4" d="M14.53,425.71" transform="translate(0.5)"/><line class="cls-3" x1="15.42" y1="383.91" x2="19.55" y2="381.2"/><path class="cls-7" d="M21.93,406.08c-.61.74-1.28,1.4-1.95,2.08a4.81,4.81,0,0,1-.35-2.56,7,7,0,0,0-2,1.86,5,5,0,0,1,.42-2.94,11.8,11.8,0,0,0-2.41,2.94c.15-1.28.19-2.57.46-3.83a11,11,0,0,0-1.5,3.49,6,6,0,0,0-.22.7c-1.07,7.65-.51,14.25,0,22.15.28,4.61.45,10.64.54,15.5,2.33.21,4.68.33,7,.33C21.46,432.6,21.07,419.27,21.93,406.08Z" transform="translate(0.5)"/><path class="cls-7" d="M85.76,402.75c-.71,1.17-1.46,2.33-2.24,3.46-.29-1.24-.29-2.51-.62-3.74-.69,1.11-1.27,2.28-1.88,3.44a5.53,5.53,0,0,0-1.46-2.76c-.49.92-.79,1.91-1.19,2.88a8.57,8.57,0,0,0-1.44-1.52c-.12-.09-.74-.33-.75-.63,2.74,14.61,1.47,26.6,2.18,41.4a14.94,14.94,0,0,0,7.88.09c-.72-13.89-.32-27.58-.55-41.47C85.69,403.59,85.73,403.08,85.76,402.75Z" transform="translate(0.5)"/></g><g id="_4" data-name="4"><path class="cls-1" d="M83.34,555.22c-.47,0-1.06.06-1.5.06h-1l-1.5,0H78c-.48,0-1.06,0-1.53,0s-.84,0-1.3.08c-.54,12.5-8.32,25-13.81,36,2.51-.08,5,0,7.51,0C74.5,579.68,81.72,568.28,83.34,555.22Z" transform="translate(0.5)"/><path class="cls-1" d="M29.43,549.53a8.65,8.65,0,0,0-1.32-.08l-.83,0-1.29,0H24.77c-.44,0-1,0-1.48,0a7.78,7.78,0,0,1-1.19-.06C23.3,558.21,6,580.93.56,590l6.65,2.52C14.91,579.65,29.28,564.13,29.43,549.53Z" transform="translate(0.5)"/><path id="shadow-4" data-name="shadow" class="cls-2" d="M43.56,592.56" transform="translate(0.5)"/><path class="cls-3" d="M8.13,539.17c-1.8-1.12-3.08-1.28-4.75-2.95-3.7-3.72-4.07-9.58-2.51-14.75,1.75-5.82,6.41-10.21,12.9-8.26,5.18,1.56,7.47,7.46,6.15,12.32-1.05,3.88-4.9,6.89-8.54,5.49-2.91-1.12-3.35-5.53-3.11-8.29.19-2.21,2-4.46,4.59-3.6,2.06.69,3.08,3.24,2.71,5.29-.3,1.64-1.73,2.86-3.15,2.3s-1.59-2.23-1.52-3.4a1.5,1.5,0,0,1,1.86-1.54" transform="translate(0.5)"/><path class="cls-1" d="M5.29,538.39c5.28,3.18,7.55,4.57,11.23,9.66,1.07,1.47,2.77,1.37,4.17.48a10.86,10.86,0,0,0,1.66-1.31c1.23-1.36,2.84-3.26,1.64-5.05-3.86-5.81-8.82-7-14.21-11.1-.75.06-1.46.09-2.2.11.31.78.56,1.59.81,2.39-.78.13-1.57.22-2.36.35.18.81.36,1.63.58,2.42-.88-.12-1.72-.37-2.59-.56C4.44,536.66,4.87,537.51,5.29,538.39Z" transform="translate(0.5)"/><path class="cls-1" d="M91.56,478.06a37.27,37.27,0,0,0,3.19,8.5c2.39,4.87,5.35,10.44,7.2,16.37,2.55,8.15,7.12,18.72,13.29,23.93,5.53,4.67,19,9.19,14.76,12-.46.31-6.28.57-9.51,1,1.54-.22-3.52-.33-5-.17-3.88.42-7.4,1-10.94,1.24-32.14,2.46-50.56-.92-60.32-9-4.81-4-6.92-8.9-7.86-15-.12-.84-.4-1.56-.47-2.43a46,46,0,0,1,.3-9.07,125.84,125.84,0,0,1,7-28.53C46,469.19,49.38,461,53,452.38,65,467.56,65.9,475.61,68.66,475.7c4,.12,4.53-13.81,11-23.87C84.35,459.87,87.56,467.15,91.56,478.06Z" transform="translate(0.5)"/><path class="cls-3" d="M45.26,581.19" transform="translate(0.5)"/><path class="cls-1" d="M39.36,580.05" transform="translate(0.5)"/><path class="cls-4" d="M116.07,529.24a22.77,22.77,0,0,0,4.82,2.34c1.44.48,5.89,1.6,6,2.07.87,2.67,1,4.58.9,5.09-.24.8-7.83,1.1-15.71,2-1.19.14-12,1-15.81,1.19-.73,0-1.63.1-2.84.15a16.78,16.78,0,0,0-2.17.13,36.88,36.88,0,0,1-10,1.09,113.28,113.28,0,0,1-12.88-2c-6.45-1.51-13.14-.87-22.51-7.51a25.22,25.22,0,0,1-6.43-6.26,23.63,23.63,0,0,1-3.43-7.81,30.77,30.77,0,0,1-.87-5.64,32.46,32.46,0,0,1-.09-4.52,79.78,79.78,0,0,1,1.63-11.81c.87-4,2-7.66,2.1-8,.17-.79,5.22-16,5.39-16,1.21-.1,11.06,1.42,15.22,2,4.5.64,15.2,7.47,18.76,11.56C80,489.37,92,501.87,93.07,504.77c.69,1.92,10.07,14.31,11.6,15.91A51.1,51.1,0,0,0,116.07,529.24Z" transform="translate(0.5)"/><path d="M124.56,536.33c-.83-2.45,1.35-4.5,3.51-4.59s4.9,2,3.86,4.44c-1,2.3-1.36,4.5-3.51,4.58S125.35,538.69,124.56,536.33Z" transform="translate(0.5)"/><ellipse class="cls-5" cx="78.06" cy="507.87" rx="11.74" ry="11.9"/><circle class="cls-6" cx="78.58" cy="508.56" r="11.6"/><ellipse cx="78.72" cy="508.51" rx="0.98" ry="0.81" transform="translate(-19.26 3.45) rotate(-2.23)"/><path id="body-4" data-name="body" class="cls-4" d="M43.14,567.05c-44.3,23.89-32.64-26.87-16-28.37a70.73,70.73,0,0,1,9.6-.52c26.72,1.89,44.37-9.62,47.77-.43,3.38,30.54-10.71,29-24.83,28.53C55.21,566.11,45.53,565.93,43.14,567.05Z" transform="translate(0.5)"/><path class="cls-7" d="M20.6,556a23.74,23.74,0,0,1-2,2.06,4.28,4.28,0,0,1-.35-2.56,6,6,0,0,0-2,1.83,4.32,4.32,0,0,1,.41-2.92c-1.13.71-1.63,1.87-2.42,2.91.18-1.28.17-2.57.47-3.83a10.11,10.11,0,0,0-1.52,3.5,5.11,5.11,0,0,0-.22.7c-1.75,9.11-1.78,15.63,3.41,23.35,3,4.51,4.53,8.24,6.66,13,2.19-.8,4.39-1.6,6.57-2.46C22.86,575.22,17.91,574.8,20.6,556Z" transform="translate(0.5)"/><path class="cls-7" d="M83.23,552.4a39.23,39.23,0,0,1-1.71,3.73c-.52-1.19-.58-2.49-1.13-3.67-.54,1.14-.92,2.34-1.4,3.51a5.19,5.19,0,0,0-1.81-2.6,28.28,28.28,0,0,0-.82,2.86,8.3,8.3,0,0,0-1.58-1.33c-.12-.07-.81-.25-.86-.54,4.6,15.25,7.85,24.5,14.8,39.29,2.51.17,5,.82,7.37-.24-3.73-15.94-10.76-22.7-12.75-39.83A11.49,11.49,0,0,1,83.23,552.4Z" transform="translate(0.5)"/><path class="cls-4" d="M13.61,576.54" transform="translate(0.5)"/></g><g id="_5" data-name="5"><path class="cls-1" d="M75.16,697.61l-1.36.07-.93,0-1.34,0c-.41,0-.78,0-1.2,0L69,697.66c-.41,0-.73,0-1.13,0-.21,14.4-.06,28.8-.28,43.2,2.21-.38,4.41-.34,6.64-.59C74.91,726,74.73,711.82,75.16,697.61Z" transform="translate(0.5)"/><path class="cls-1" d="M30,698.16l-1.36.07-.93,0-1.33,0c-.42,0-.79,0-1.2,0l-1.34,0c-.41,0-.73,0-1.13,0-.21,14.4-.06,28.81-.28,43.2,2.21-.37,4.42-.33,6.64-.58C29.74,726.59,29.56,712.36,30,698.16Z" transform="translate(0.5)"/><path id="shadow-5" data-name="shadow" class="cls-2" d="M44.17,741.3" transform="translate(0.5)"/><path class="cls-3" d="M9.88,688.06c-1.79-1-3.29-.74-4.91-2.41C1.39,682-.1,676.4,0,671.2c.12-5.86,1.48-14,8.9-14.06,5.93,0,12.39,3.81,12.8,9.17.33,4.3.18,12.58-4.24,12.06-3.53-.42-9-5.2-9.9-7.81-.7-2.08-.65-6.55,2.44-6.7,2.48-.12,5.43-.14,5.78,1.92.28,1.65,1.66,6.79-.08,6.76s-3.91,0-4.29-1.21-1.55-3.5-.44-4.05" transform="translate(0.5)"/><path class="cls-1" d="M7,687.68A27,27,0,0,1,18.6,696.4c1,1.25,2.74,1.22,4.12.14a8.11,8.11,0,0,0,1.55-1.44c1.12-1.6,1.41-2.89.2-4.53-3.92-5.32-8.17-8-13.79-11.19-.7.22-1.38.4-2.09.55.32.83.58,1.68.85,2.52-.72.25-1.46.44-2.19.66a22.17,22.17,0,0,0,.8,2.38c-.84,0-1.67-.15-2.5-.25C6,686.06,6.54,686.88,7,687.68Z" transform="translate(0.5)"/><path class="cls-1" d="M92.91,627.16a37.82,37.82,0,0,0,2.86,8.62c2.2,5,4.94,10.65,6.56,16.64,2.22,8.25,6.38,19,12.34,24.43,5.34,4.88,18.61,9.92,14.28,12.6-.47.3-6.3.33-9.54.65,1.55-.15-3.51-.47-5-.36-3.89.27-7.44.68-11,.81-32.21,1.2-50.49-2.89-59.92-11.4-4.66-4.19-6.57-9.15-7.27-15.31-.09-.84-.35-1.57-.38-2.44a47.26,47.26,0,0,1,.65-9.06,126.67,126.67,0,0,1,8.09-28.24c3.14-7.57,6.84-15.63,10.81-24.1,11.33,15.64,12,23.72,14.72,23.91,4,.28,5.06-13.62,11.87-23.42C86.41,608.71,89.34,616.1,92.91,627.16Z" transform="translate(0.5)"/><path class="cls-3" d="M45.87,729.93" transform="translate(0.5)"/><path class="cls-1" d="M40,728.79" transform="translate(0.5)"/><path class="cls-4" d="M115.41,679.26a22.81,22.81,0,0,0,4.72,2.52c1.42.54,5.83,1.84,6,2.31.78,2.7.88,4.62.71,5.12-.27.79-7.87.79-15.78,1.38-1.19.09-12,.58-15.85.57-.72,0-1.62,0-2.83,0a17.94,17.94,0,0,0-2.18,0,36.88,36.88,0,0,1-10,.71,115.38,115.38,0,0,1-12.8-2.5c-6.38-1.76-13.09-1.38-22.2-8.37A25.25,25.25,0,0,1,39,674.57a23.8,23.8,0,0,1-3.12-7.94A31,31,0,0,1,35.2,661a34.1,34.1,0,0,1,.08-4.52,80.5,80.5,0,0,1,2.09-11.74c1-4,2.32-7.57,2.41-7.94C40,636,45.62,621,45.8,621c1.21-.05,11,1.85,15.13,2.6,4.47.82,14.89,8.06,18.29,12.28C81,638,92.44,651,93.37,653.92c.62,1.93,9.52,14.69,11,16.34A50.93,50.93,0,0,0,115.41,679.26Z" transform="translate(0.5)"/><path d="M123.61,686.68c-.73-2.49,1.53-4.45,3.69-4.45s4.82,2.14,3.68,4.58c-1,2.26-1.53,4.45-3.68,4.45S124.32,689.07,123.61,686.68Z" transform="translate(0.5)"/><ellipse class="cls-5" cx="78.67" cy="656.61" rx="11.74" ry="11.9"/><circle class="cls-6" cx="78.75" cy="657.11" r="11.6"/><ellipse cx="79.4" cy="657.09" rx="0.98" ry="0.81"/><path id="body-5" data-name="body" class="cls-4" d="M43.75,715.79c-44.3,23.89-32.64-26.87-16-28.37a70.73,70.73,0,0,1,9.6-.52c26.72,1.89,44.37-9.62,47.76-.43,3.38,30.54-11.21,25.41-25.33,24.92C55.31,711.24,46.14,714.67,43.75,715.79Z" transform="translate(0.5)"/><path class="cls-7" d="M21.23,704.7c-.61.74-1.28,1.41-1.95,2.08a4.79,4.79,0,0,1-.35-2.56,7.1,7.1,0,0,0-2,1.86,5,5,0,0,1,.42-2.94,11.8,11.8,0,0,0-2.41,2.94c.15-1.28.19-2.57.46-3.83a11,11,0,0,0-1.5,3.49,6,6,0,0,0-.22.7c-1.08,7.66-.51,14.25,0,22.15.28,4.62.45,10.64.54,15.5,2.33.21,4.68.33,7,.33C20.76,731.22,20.37,717.89,21.23,704.7Z" transform="translate(0.5)"/><path class="cls-7" d="M85.06,701.37c-.71,1.17-1.46,2.33-2.24,3.46-.29-1.23-.29-2.51-.62-3.74-.69,1.12-1.27,2.29-1.88,3.44a5.53,5.53,0,0,0-1.46-2.76c-.49.92-.79,1.91-1.19,2.88a8.57,8.57,0,0,0-1.44-1.52c-.12-.09-.74-.33-.75-.63,2.74,14.61,1.47,26.6,2.18,41.4a14.74,14.74,0,0,0,7.88.09c-.72-13.89-.32-27.58-.55-41.47C85,702.21,85,701.7,85.06,701.37Z" transform="translate(0.5)"/><path class="cls-4" d="M14.22,725.28" transform="translate(0.5)"/><line class="cls-3" x1="11.13" y1="679.89" x2="11" y2="674.47"/></g></svg>